<?xml version="1.0" ?>
<!DOCTYPE svg  PUBLIC '-//W3C//DTD SVG 1.1//EN'  'http://www.w3.org/Graphics/SVG/1.1/DTD/svg11.dtd'>
<!-- Uploaded to: SVG Repo, www.svgrepo.com, Generator: SVG Repo Mixer Tools -->
<svg width="800px" height="800px" viewBox="0 0 48 48" enable-background="new 0 0 48 48" id="Layer_4" version="1.1" xml:space="preserve" xmlns="http://www.w3.org/2000/svg" xmlns:xlink="http://www.w3.org/1999/xlink">
<g>
<polygon fill="#241F20" points="9.373,31.288 7.947,26.637 3.149,25.521 2.436,26.281 2.449,26.293 2.454,26.289 2.558,26.385    2.559,26.385 5.574,29.158 5.574,30.689 3.889,30.99 0.843,28.188 0.722,28.109 0,28.879 1.472,33.57 6.195,34.705 19.331,47.89    22.588,44.644 9.754,31.762  "/>
<polygon fill="#241F20" points="3.818,44.644 7.077,47.889 11.984,42.967 8.738,39.709  "/>
<path d="M28.648,33.536l-2.044-2.08l-0.591,0.58l-2.441-2.449c-0.001-0.002-0.003-0.003-0.005-0.005   c-4.784-4.896-9.956-3.943-9.956-3.943l4.576,4.594l-3.753,3.764l3.246,3.257l3.753-3.764l1.535,1.541l-0.582,0.571l2.043,2.08   l0.596-0.586l0.039,0.038l3.025-3.013l-0.019-0.019L28.648,33.536z" fill="#241F20"/>
</g>
<path d="M37.999,4V0h-4v4H14V0h-4v4H0v18.594h4V19.9h39.999V44H26.792H26h-0.953v4H26h0.792h21.207V4H37.999z   M43.999,15.9H4V8h6v4h4V8h20v4h4V8h6V15.9z" fill="#241F20"/>
</svg>