<?xml version="1.0" encoding="utf-8"?><!-- Uploaded to: SVG Repo, www.svgrepo.com, Generator: SVG Repo Mixer Tools -->
<svg width="800px" height="800px" viewBox="0 0 24 24" fill="none" xmlns="http://www.w3.org/2000/svg">
<path fill-rule="evenodd" clip-rule="evenodd" d="M13.5 6C13.5 6.82843 12.8284 7.5 12 7.5C11.1716 7.5 10.5 6.82843 10.5 6C10.5 5.17157 11.1716 4.5 12 4.5C12.8284 4.5 13.5 5.17157 13.5 6ZM13.9844 8.25C14.6072 7.70029 15 6.89602 15 6C15 4.34315 13.6569 3 12 3C10.3431 3 9 4.34315 9 6C9 6.89602 9.39282 7.70029 10.0156 8.25H9.00002C8.80111 8.25 8.61034 8.32902 8.46969 8.46967L5.52299 11.4164C4.78644 12.1529 4.78645 13.3471 5.52299 14.0836C6.18667 14.7473 7.23737 14.822 7.98824 14.2588L8.4513 13.9115L7.0566 19.0254C6.78539 20.0199 7.53401 21 8.56478 21C9.08746 21 9.57555 20.7388 9.86549 20.3039L12.036 17.048L14.5885 20.4513C14.8475 20.7967 15.2541 21 15.6859 21C16.5905 21 17.2474 20.1399 17.0094 19.2673L15.5487 13.9115L16.0118 14.2588C16.7627 14.822 17.8134 14.7473 18.477 14.0836C19.2136 13.3471 19.2136 12.1529 18.477 11.4164L15.5303 8.46967C15.3897 8.32902 15.1989 8.25 15 8.25H13.9844ZM6.58365 12.477L9.31068 9.75H14.6894L17.4164 12.477C17.5671 12.6278 17.5671 12.8722 17.4164 13.023C17.2805 13.1588 17.0655 13.1741 16.9118 13.0588L14.7 11.4C14.4437 11.2078 14.0936 11.1996 13.8285 11.3796C13.5635 11.5597 13.4421 11.8882 13.5264 12.1973L15.3855 19.014L12.6 15.3C12.454 15.1053 12.2225 14.9935 11.9792 15.0003C11.7359 15.007 11.511 15.1315 11.376 15.334L8.61741 19.4718C8.60568 19.4894 8.58593 19.5 8.56478 19.5C8.52306 19.5 8.49277 19.4603 8.50375 19.4201L10.4736 12.1973C10.5579 11.8882 10.4365 11.5597 10.1715 11.3796C9.90648 11.1996 9.55634 11.2078 9.30002 11.4L7.08824 13.0588C6.93455 13.1741 6.71949 13.1588 6.58365 13.023C6.43289 12.8722 6.43289 12.6278 6.58365 12.477Z" fill="#080341"/>
</svg>