<?xml version="1.0" encoding="UTF-8" standalone="no"?>


<!-- Uploaded to: SVG Repo, www.svgrepo.com, Generator: SVG Repo Mixer Tools -->
<svg 
   xmlns:dc="http://purl.org/dc/elements/1.1/"
   xmlns:cc="http://creativecommons.org/ns#"
   xmlns:rdf="http://www.w3.org/1999/02/22-rdf-syntax-ns#"
   xmlns:svg="http://www.w3.org/2000/svg"
   xmlns="http://www.w3.org/2000/svg"
   xmlns:sodipodi="http://sodipodi.sourceforge.net/DTD/sodipodi-0.dtd"
   xmlns:inkscape="http://www.inkscape.org/namespaces/inkscape"
   width="30"
   height="30"
   viewBox="0 0 30 30"
   version="1.1"
   id="svg822"
   inkscape:version="0.92.4 (f8dce91, 2019-08-02)"
   sodipodi:docname="accessibility.svg">
  <defs
     id="defs816" />
  <sodipodi:namedview
     id="base"
     pagecolor="#ffffff"
     bordercolor="#666666"
     borderopacity="1.0"
     inkscape:pageopacity="0.0"
     inkscape:pageshadow="2"
     inkscape:zoom="16"
     inkscape:cx="8.0114729"
     inkscape:cy="11.171564"
     inkscape:document-units="px"
     inkscape:current-layer="layer1"
     showgrid="true"
     units="px"
     inkscape:window-width="1366"
     inkscape:window-height="713"
     inkscape:window-x="0"
     inkscape:window-y="0"
     inkscape:window-maximized="1"
     inkscape:lockguides="true">
    <inkscape:grid
       type="xygrid"
       id="grid816" />
  </sodipodi:namedview>
  <metadata
     id="metadata819">
    <rdf:RDF>
      <cc:Work
         rdf:about="">
        <dc:format>image/svg+xml</dc:format>
        <dc:type
           rdf:resource="http://purl.org/dc/dcmitype/StillImage" />
        <dc:title />
      </cc:Work>
    </rdf:RDF>
  </metadata>
  <g
     inkscape:label="Layer 1"
     inkscape:groupmode="layer"
     id="layer1"
     transform="translate(0,-289.0625)">
    <path
       style="opacity:1;fill:#000000;fill-opacity:1;stroke:none;stroke-width:0.5;stroke-miterlimit:4;stroke-dasharray:none;stroke-opacity:1"
       d="M 15.044922 3 A 2 2 0 0 0 13.044922 5 A 2 2 0 0 0 15.044922 7 A 2 2 0 0 0 17.044922 5 A 2 2 0 0 0 15.044922 3 z M 4 9 C 3.446 9 3 9.446 3 10 C 3 10.554 3.446 11 4 11 L 11.492188 11 L 13.816406 15.027344 L 8.6054688 24.054688 C 8.3284686 24.534468 8.4909251 25.142922 8.9707031 25.419922 C 9.4504812 25.696922 10.060891 25.534468 10.337891 25.054688 L 14.972656 17.029297 L 19.605469 25.054688 C 19.882469 25.534468 20.490925 25.696922 20.970703 25.419922 C 21.450481 25.142922 21.614891 24.534468 21.337891 24.054688 L 16.126953 15.027344 L 18.451172 11 L 26 11 C 26.554 11 27 10.554 27 10 C 27 9.446 26.554 9 26 9 L 4 9 z "
       transform="translate(0,289.0625)"
       id="path852" />
  </g>
</svg>